<svg xmlns="http://www.w3.org/2000/svg" version="1.1" xmlns:xlink="http://www.w3.org/1999/xlink" width="35" height="37"><svg width="35" height="37" viewBox="0 0 35 37" fill="none" xmlns="http://www.w3.org/2000/svg">
<circle cx="17" cy="17" r="17" fill="#514541"></circle>
<path d="M27.4381 12.3552C32.3022 21.9337 18.9416 28.5001 17.2774 33.5001C16.8773 34.7022 23.0618 29.9063 27 25C32.0001 18.7711 30.8856 14.1189 28.2964 10.3649C24.8568 5.65692 19.8041 2.91727 13.9546 4.23511C-6.26204 8.78857 8.31819 31.4989 16.8358 25.5935C26.997 18.2054 15.6368 4.60446 10.5477 15.1202C8.44174 19.4729 15.098 21.1769 14.8313 18.2579C14.1349 16.7776 12.4436 15.0956 13.7037 13.9016C14.665 12.992 16.2739 13.5351 17.2774 14.0978C19.1136 15.285 19.9754 18.1017 19.3806 20.1381C16.4555 28.3115 7.73712 24.6067 5.32243 16.7546C2.52009 7.64602 19.7822 0.605439 27.4381 12.3552Z" fill="white"></path>
</svg><style>@media (prefers-color-scheme: light) { :root { filter: none; } }
@media (prefers-color-scheme: dark) { :root { filter: none; } }
</style></svg>