<svg width="187" height="175" viewBox="0 0 187 175" fill="none" xmlns="http://www.w3.org/2000/svg">
<path d="M142.106 62.9182C141.981 73.8959 126.442 75.1639 124.844 62.7689C123.948 55.8193 130.756 49.0925 137.42 48.5265L137.46 48.9878L137.424 48.5265L137.469 49.0959L137.432 48.5254L137.499 49.4491C126.371 50.4942 121.238 65.6292 131.095 69.8567C135.405 71.7053 140.607 68.6088 140.717 63.8798C140.643 63.2837 140.792 62.9037 140.34 61.8441C139.888 60.7855 138.896 60.7833 138.219 60.7209C135.845 60.4992 136.315 63.969 134.743 62.9862C132.279 61.4463 134.108 59.3091 136.413 58.4924C138.705 57.6812 140.549 58.9192 141.392 60.4669C141.802 61.2212 141.954 62.0703 142.105 62.9182H142.106ZM97.9946 95.7109C102.756 116.568 103.713 146.466 104.885 168.862C101.285 169.352 97.7316 169.626 94.2317 169.693C94.6886 153.152 95.7594 125.567 92.996 104.18C91.9865 107.161 91.2812 110.253 90.7842 113.324C87.8102 130.84 89.5585 151.759 90.8455 169.694C88.8498 169.656 86.8732 169.553 84.9165 169.383C84.8552 166.45 84.7728 163.247 84.7037 159.861C75.2659 146.804 74.3199 144.494 77.1434 130.227C79.3285 119.193 78.1541 109.391 68.3932 107.062L68.3698 107.159C67.8929 107.027 67.4349 106.905 66.9859 106.789C65.2465 106.521 63.2687 106.462 61.0268 106.643C40.1044 108.334 37.5015 137.742 58.5041 137.848C69.055 137.901 71.0652 123.635 61.0803 121.637C60.0295 121.608 59.0557 121.688 58.3325 122.117C56.0249 123.625 59.4724 127.426 55.831 127.935C51.0241 128.608 53.4476 119.488 58.7203 119.325C59.712 119.238 61.8291 119.5 63.0369 119.88C65.0548 120.515 66.5803 121.603 68.0678 123.834C74.0893 132.866 63.3645 145.88 48.8981 137.245C36.2513 129.695 41.4838 110.24 55.7096 105.261C48.9984 105.88 49.8441 110.869 40.3562 111.058C25.7616 111.347 27.8319 89.9379 40.7573 93.6439C44.4466 94.7014 47.7359 99.2553 45.874 103.048C44.2761 106.295 37.7354 109.135 36.8284 103.784C36.5866 102.195 37.1627 100.262 38.755 99.6754C39.4169 99.4448 39.7088 99.564 39.5918 100.069C38.9232 101.586 38.6647 101.658 38.8898 103.513C39.0547 104.868 40.3428 105.271 40.8665 105.248C42.4844 105.179 44.8489 104.071 45.5074 101.497C45.9832 98.7996 43.7012 95.7075 41.242 94.7092L41.1239 94.6434C31.0443 90.7914 27.0831 105.804 35.8 109.259C44.3319 112.641 48.4245 105.238 54.8627 103.68C58.4517 102.841 62.3283 103.522 65.9841 104.312C67.2934 104.491 68.6394 104.775 70.0222 105.187C88.7239 110.742 76.7902 133.781 79.0834 143.441C80.1129 147.192 82.2412 150.605 84.6045 153.812C84.5031 145.109 84.6079 135.595 85.438 126.476C85.1126 113.405 82.8796 102.282 67.8917 98.9288C60.0139 97.1661 51.7729 95.039 48.2485 87.1812C39.5851 74.3216 43.8538 71.6473 39.1138 65.6136C32.114 56.7029 18.2248 67.6327 23.2423 76.5111C26.5773 82.4133 35.8512 83.3315 38.0764 75.5149C39.2787 71.2908 35.9058 67.6282 31.3808 68.0004C28.4771 68.2388 26.9071 71.7142 27.755 73.224C28.9607 75.3701 31.675 75.6342 32.0171 73.7644C32.0884 73.3756 32.1642 72.3025 33.1804 72.346C34.1843 72.3894 34.7258 72.9811 34.1486 74.6815C27.3338 81.0695 21.6366 68.7258 31.2694 67.1457C35.6874 66.4215 40.3729 71.3755 39.2208 76.0152C36.307 86.1204 21.6923 82.4868 20.9848 72.5722C20.1413 60.7532 38.1065 54.7173 43.1151 70.7938C44.2271 74.3628 44.8533 78.1412 46.7286 81.4227C45.338 65.8888 68.2494 57.084 75.4297 73.4157C84.4262 93.8768 51.6603 95.2295 56.7458 80.8233C60.1276 71.2429 72.283 76.7172 67.0282 81.5743C66.7764 81.5475 66.5435 81.7637 66.2738 81.4929C65.1496 80.9213 65.7145 79.2343 63.8893 78.88C61.7288 78.461 60.1276 79.6811 59.459 81.9097C59.1582 82.9147 58.9933 84.2006 59.4613 85.1588C65.3245 92.9954 81.1581 85.6703 73.5366 72.2702C64.3061 56.0421 37.7176 76.6492 54.6154 91.2315C64.7094 99.9417 79.5681 91.8644 86.5222 112.133C86.7394 112.798 86.9355 113.469 87.1127 114.143C88.2392 108.218 89.8371 102.759 92.0812 98.1734C91.0538 92.3703 89.6711 87.2247 87.8192 83.161C81.5537 69.4066 71.6167 61.0797 67.1352 39.2993C66.8655 37.9889 66.6449 36.6964 66.4733 35.4206C63.9317 27.1082 62.2213 19.7953 51.5679 21.1781C37.9349 24.4663 38.8007 43.0889 48.322 43.4922C56.5297 43.841 62.9355 36.8624 56.2099 31.3736C54.4894 30.1323 51.5467 30.003 49.814 31.3368C48.9482 32.0945 47.8986 33.4294 48.4346 34.6395C49.1388 36.2262 51.2893 35.1944 52.9172 35.0328C55.7575 35.7571 51.9266 41.4609 48.5282 38.0212C40.3183 29.71 56.9341 23.5492 60.5009 35.5955C63.2197 45.5971 36.9421 51.7478 39.4079 31.1719C40.1211 25.2184 44.392 21.372 49.9789 19.7039C54.3825 18.5184 58.9922 18.4069 62.394 21.9837C63.9818 23.3498 65.1607 25.0178 66.0911 26.8296C66.8065 14.2385 73.6469 4.53219 88.6437 0.965444C121.248 -6.78868 134.885 34.3152 117.289 47.5192C103.064 58.1938 80.3781 51.8369 85.5383 31.1173C89.3401 15.8497 110.274 19.7474 106.463 34.5793C105.997 36.3944 101.994 36.2518 101.994 33.4049C102.394 31.8984 103.437 30.0309 103.407 28.3996C103.505 27.4257 103.067 25.9137 102.307 25.4401C95.4507 19.6349 84.1711 26.8519 87.5751 40.6108C91.5018 56.4812 120.671 52.3071 122.582 33.5653C124.62 13.5688 105.75 -5.75911 82.5008 6.30609C60.6914 17.6247 70.6963 45.1703 80.3737 61.5031C87.7579 73.9661 92.9314 78.3574 96.7522 91.0711C99.959 87.4698 104.215 84.5471 108.988 82.391C111.435 80.5803 113.471 79.0293 114.327 78.0209C123.555 67.1546 105.847 56.2851 101.086 66.3279C100.287 68.0126 99.9044 70.9665 100.926 72.8608C102.186 75.1985 105.276 76.774 106.709 74.433C107.656 72.8853 106.125 70.4651 108.481 70.2801C111.343 70.0539 111.229 76.0364 107.448 77.1852C100.856 79.1886 94.8 70.2111 101.374 63.1467C110.687 54.7485 125.732 67.7006 116.027 79.3714C115.834 79.6031 115.649 79.8182 115.471 80.0165C117.189 79.5218 118.938 79.1173 120.7 78.8064C134.406 73.6887 142.651 75.7768 147.167 70.0038C153.177 62.3221 148.19 48.5877 137.561 49.4446L137.524 48.9833L137.56 49.4446L137.487 48.5209C152.961 47.3821 159.782 72.5555 139.065 76.7696L131.65 77.9306C131.38 77.973 131.111 78.0187 130.843 78.0666C146.433 77.7368 155.454 82.9437 160.815 82.1815C164.275 81.6902 165.963 79.5575 166.23 76.2347C166.216 71.1816 158.364 67.3797 156.064 72.7337C155.299 74.8898 155.477 76.6481 157.269 77.9173C158.046 78.4688 158.839 78.3284 159.225 78.1089C160.465 77.4025 160.127 76.647 159.868 75.9617C159.423 74.7817 160.106 74.2413 160.442 74.0497C161.728 73.3154 164.013 75.9595 162.34 78.3295C161.796 79.0995 160.655 79.8148 159.758 80.1135C152.526 82.0445 150.726 69.2506 159.577 68.3291C167.929 67.46 171.896 81.0261 162.541 83.7226C158.766 85.1544 154.026 82.6596 149.823 81.6578C147.816 81.1798 145.7 80.8689 143.534 80.6628C148.712 82.8178 152.889 86.3455 155.158 91.3931C163.218 109.316 147.649 121.626 133.275 114.793C128.49 111.927 126.388 107.871 126.24 104.035C124.694 99.6186 121.556 97.3511 115.393 98.2558C111.136 98.8809 107.406 102.364 107.283 106.816C107.178 111.865 109.557 114.303 114.216 115.022C116.635 115.395 119.116 114.092 120.534 112.137C121.948 110.186 122.232 107.572 120.3 105.816C118.487 104.168 115.898 104.275 115.008 104.468C113.921 104.703 112.994 105.318 112.606 106.348C112.147 107.567 112.674 108.698 114.096 109.111C115.582 108.289 116.107 108.682 116.286 109.13C117.357 111.797 114.193 111.995 112.779 110.983C107.431 107.19 112.274 100.233 119.412 103.785L121.131 105.061C123.053 107.203 123.238 110.572 121.426 112.826C115.644 120.02 104.368 114.908 106.248 105.195C108.03 95.9905 121.24 93.8735 126.504 101.127C127.814 95.3086 133.68 91.0009 141.11 94.0395C147.624 97.7756 144.037 106.784 140.818 106.06C137.255 105.259 143.691 99.1272 140.9 97.0781C134.7 92.5263 127.409 97.9572 128.201 104.787C128.417 105.523 128.59 106.275 128.748 107.028C129.111 107.999 129.648 108.978 130.382 109.943L132.196 111.75C142.137 119.126 160.531 111.976 153.741 93.6829C146.45 74.043 109.702 77.9273 97.755 94.6545L97.7405 94.6746C97.8263 95.0156 97.911 95.3599 97.9946 95.712V95.7109Z" fill="white"/>
<path d="M182.695 80.518C182.943 49.0191 166.476 19.2683 139.933 2.33942L140.322 1.69092C206.166 39.1155 200.323 136.552 130.196 166.747C59.1281 197.347 -16.5624 132.753 3.18562 58.6997C5.41971 50.3216 8.87057 42.2834 13.4112 34.8958L14.0675 35.2713C-21.8841 102.68 35.3621 182.364 110.021 168.035C151.967 159.985 182.169 123.046 182.696 80.518H182.695Z" fill="white"/>
</svg>
